<?xml version="1.0" standalone="no"?>
<!DOCTYPE svg PUBLIC "-//W3C//DTD SVG 20010904//EN"
 "http://www.w3.org/TR/2001/REC-SVG-20010904/DTD/svg10.dtd">
<svg version="1.0" xmlns="http://www.w3.org/2000/svg"
 width="75.000000pt" height="75.000000pt" viewBox="0 0 75.000000 75.000000"
 preserveAspectRatio="xMidYMid meet">

<g transform="translate(0.000000,75.000000) scale(0.100000,-0.100000)"
fill="#000000" stroke="none">
<path d="M310 633 c-13 -25 -46 -70 -72 -98 -46 -51 -88 -129 -88 -164 0 -9
12 -33 26 -54 l25 -38 -30 -53 c-53 -93 -40 -122 76 -162 91 -32 111 -30 194
13 75 40 163 130 175 179 7 26 -12 84 -27 84 -5 0 -13 9 -19 19 -8 16 -5 28
15 57 15 23 25 51 25 73 0 32 -5 38 -38 53 -72 33 -167 90 -193 114 -14 13
-29 24 -35 24 -5 0 -20 -21 -34 -47z m165 -109 c44 -16 82 -30 84 -31 8 -6
-24 -55 -41 -64 -14 -7 -29 -3 -63 16 -47 28 -109 97 -97 109 8 8 10 7 117
-30z m-155 -48 c0 -37 -56 -116 -83 -116 -60 0 -53 37 20 108 46 44 63 47 63
8z m204 -168 c43 -40 42 -62 -6 -97 -53 -39 -88 -40 -131 -1 -19 16 -39 30
-43 30 -5 -1 -22 -21 -38 -46 -25 -40 -32 -45 -60 -42 -44 4 -44 29 0 83 28
33 48 46 74 51 19 3 60 14 90 24 73 24 84 24 114 -2z"/>
</g>
</svg>
